%TF.GenerationSoftware,KiCad,Pcbnew,10.0.3*%
%TF.CreationDate,2026-06-11T15:00:28-06:00*%
%TF.ProjectId,OpenRX-Lite-UFL,4f70656e-5258-42d4-9c69-74652d55464c,rev?*%
%TF.SameCoordinates,Original*%
%TF.FileFunction,Soldermask,Bot*%
%TF.FilePolarity,Negative*%
%FSLAX46Y46*%
G04 Gerber Fmt 4.6, Leading zero omitted, Abs format (unit mm)*
G04 Created by KiCad (PCBNEW 10.0.3) date 2026-06-11 15:00:28*
%MOMM*%
%LPD*%
G01*
G04 APERTURE LIST*
G04 Aperture macros list*
%AMRoundRect*
0 Rectangle with rounded corners*
0 $1 Rounding radius*
0 $2 $3 $4 $5 $6 $7 $8 $9 X,Y pos of 4 corners*
0 Add a 4 corners polygon primitive as box body*
4,1,4,$2,$3,$4,$5,$6,$7,$8,$9,$2,$3,0*
0 Add four circle primitives for the rounded corners*
1,1,$1+$1,$2,$3*
1,1,$1+$1,$4,$5*
1,1,$1+$1,$6,$7*
1,1,$1+$1,$8,$9*
0 Add four rect primitives between the rounded corners*
20,1,$1+$1,$2,$3,$4,$5,0*
20,1,$1+$1,$4,$5,$6,$7,0*
20,1,$1+$1,$6,$7,$8,$9,0*
20,1,$1+$1,$8,$9,$2,$3,0*%
%AMRotRect*
0 Rectangle, with rotation*
0 The origin of the aperture is its center*
0 $1 length*
0 $2 width*
0 $3 Rotation angle, in degrees counterclockwise*
0 Add horizontal line*
21,1,$1,$2,0,0,$3*%
%AMFreePoly0*
4,1,15,0.030697,0.149468,0.210697,0.009468,0.229614,-0.023798,0.230000,-0.030000,0.230000,-0.110000,0.215355,-0.145355,0.180000,-0.160000,-0.180000,-0.160000,-0.215355,-0.145355,-0.230000,-0.110000,-0.230000,0.110000,-0.215355,0.145355,-0.180000,0.160000,0.000000,0.160000,0.030697,0.149468,0.030697,0.149468,$1*%
%AMFreePoly1*
4,1,15,0.215355,0.155355,0.230000,0.120000,0.230000,0.040000,0.215355,0.004645,0.210697,0.000532,0.030697,-0.139468,0.000000,-0.150000,-0.180000,-0.150000,-0.215355,-0.135355,-0.230000,-0.100000,-0.230000,0.120000,-0.215355,0.155355,-0.180000,0.170000,0.180000,0.170000,0.215355,0.155355,0.215355,0.155355,$1*%
%AMFreePoly2*
4,1,15,0.215355,0.155355,0.230000,0.120000,0.230000,-0.100000,0.215355,-0.135355,0.180000,-0.150000,0.000000,-0.150000,-0.030697,-0.139468,-0.210697,0.000532,-0.229614,0.033798,-0.230000,0.040000,-0.230000,0.120000,-0.215355,0.155355,-0.180000,0.170000,0.180000,0.170000,0.215355,0.155355,0.215355,0.155355,$1*%
%AMFreePoly3*
4,1,15,0.215355,0.145355,0.230000,0.110000,0.230000,-0.110000,0.215355,-0.145355,0.180000,-0.160000,-0.180000,-0.160000,-0.215355,-0.145355,-0.230000,-0.110000,-0.230000,-0.030000,-0.215355,0.005355,-0.210697,0.009468,-0.030697,0.149468,0.000000,0.160000,0.180000,0.160000,0.215355,0.145355,0.215355,0.145355,$1*%
G04 Aperture macros list end*
%ADD10C,0.250000*%
%ADD11C,0.600000*%
%ADD12RoundRect,0.475000X-0.475000X-0.775000X0.475000X-0.775000X0.475000X0.775000X-0.475000X0.775000X0*%
%ADD13RoundRect,0.100000X-0.100000X0.130000X-0.100000X-0.130000X0.100000X-0.130000X0.100000X0.130000X0*%
%ADD14RoundRect,0.062500X0.062500X-0.337500X0.062500X0.337500X-0.062500X0.337500X-0.062500X-0.337500X0*%
%ADD15RoundRect,0.062500X0.337500X-0.062500X0.337500X0.062500X-0.337500X0.062500X-0.337500X-0.062500X0*%
%ADD16R,3.000000X3.000000*%
%ADD17RoundRect,0.100000X-0.130000X-0.100000X0.130000X-0.100000X0.130000X0.100000X-0.130000X0.100000X0*%
%ADD18RoundRect,0.100000X0.130000X0.100000X-0.130000X0.100000X-0.130000X-0.100000X0.130000X-0.100000X0*%
%ADD19FreePoly0,180.000000*%
%ADD20FreePoly1,180.000000*%
%ADD21FreePoly2,180.000000*%
%ADD22FreePoly3,180.000000*%
%ADD23RotRect,0.480000X0.480000X135.000000*%
%ADD24RoundRect,0.100000X0.100000X-0.130000X0.100000X0.130000X-0.100000X0.130000X-0.100000X-0.130000X0*%
%ADD25RoundRect,0.168750X0.431250X-0.168750X0.431250X0.168750X-0.431250X0.168750X-0.431250X-0.168750X0*%
%ADD26R,1.000000X1.750000*%
%ADD27R,0.700000X0.900000*%
G04 APERTURE END LIST*
D10*
G36*
X101881732Y-101994033D02*
G01*
X101800460Y-102202983D01*
X101932473Y-102302817D01*
X102227336Y-102529169D01*
X102241074Y-102526116D01*
X102248401Y-102502148D01*
X102264277Y-102466521D01*
X102284649Y-102431883D01*
X102306775Y-102404849D01*
X102333234Y-102382194D01*
X102360081Y-102366442D01*
X102390472Y-102356989D01*
X102431950Y-102353436D01*
X102471717Y-102358905D01*
X102506505Y-102374991D01*
X102534957Y-102400366D01*
X102555048Y-102434036D01*
X102565578Y-102465318D01*
X102571107Y-102497540D01*
X102574221Y-102561104D01*
X102574038Y-102589131D01*
X102574221Y-102602076D01*
X102407709Y-102603419D01*
X102254874Y-102603846D01*
X102011120Y-102603175D01*
X101820000Y-102601709D01*
X101820000Y-102827695D01*
X101978757Y-102826168D01*
X102288518Y-102825191D01*
X102444834Y-102825497D01*
X102734445Y-102827695D01*
X102736399Y-102745385D01*
X102738353Y-102628881D01*
X102732185Y-102452294D01*
X102721803Y-102378978D01*
X102703487Y-102311182D01*
X102677816Y-102250751D01*
X102646817Y-102204555D01*
X102610736Y-102170132D01*
X102568062Y-102144405D01*
X102522494Y-102129137D01*
X102472983Y-102123970D01*
X102416288Y-102129598D01*
X102366841Y-102145834D01*
X102323140Y-102172513D01*
X102266914Y-102223385D01*
X102229473Y-102271676D01*
X102225382Y-102271676D01*
X102042932Y-102119879D01*
X101952124Y-102044841D01*
X101881732Y-101994033D01*
G37*
G36*
X101885151Y-101096257D02*
G01*
X101800460Y-101309970D01*
X101846403Y-101336576D01*
X101926001Y-101388921D01*
X102163039Y-101551282D01*
X102163039Y-101554091D01*
X101936137Y-101707780D01*
X101839723Y-101769380D01*
X101800460Y-101791250D01*
X101879717Y-101998979D01*
X102006723Y-101911967D01*
X102281008Y-101717062D01*
X102283756Y-101717062D01*
X102517557Y-101876369D01*
X102674056Y-101982981D01*
X102753984Y-101769330D01*
X102711688Y-101745252D01*
X102628138Y-101690378D01*
X102417479Y-101544443D01*
X102417479Y-101540718D01*
X102629481Y-101398935D01*
X102753984Y-101319373D01*
X102678818Y-101112988D01*
X102531601Y-101216242D01*
X102295357Y-101381045D01*
X102292609Y-101381045D01*
X102051297Y-101208609D01*
X101952029Y-101138897D01*
X101885151Y-101096257D01*
G37*
D11*
%TO.C,TP3*%
X105770000Y-109300000D03*
X105770000Y-110700000D03*
D12*
X106270000Y-110000000D03*
D11*
X106770000Y-109300000D03*
X106770000Y-110700000D03*
%TD*%
%TO.C,TP4*%
X108310000Y-109300000D03*
X108310000Y-110700000D03*
D12*
X108810000Y-110000000D03*
D11*
X109310000Y-109300000D03*
X109310000Y-110700000D03*
%TD*%
%TO.C,TP2*%
X103224048Y-109300000D03*
X103224048Y-110700000D03*
D12*
X103724048Y-110000000D03*
D11*
X104224048Y-109300000D03*
X104224048Y-110700000D03*
%TD*%
%TO.C,TP1*%
X100684048Y-109300000D03*
X100684048Y-110700000D03*
D12*
X101184048Y-110000000D03*
D11*
X101684048Y-109300000D03*
X101684048Y-110700000D03*
%TD*%
D13*
%TO.C,C15*%
X102100000Y-100580000D03*
X102100000Y-101220000D03*
%TD*%
D14*
%TO.C,U1*%
X108700000Y-105000000D03*
X108200000Y-105000000D03*
X107700000Y-105000000D03*
X107200000Y-105000000D03*
X106700000Y-105000000D03*
X106200000Y-105000000D03*
X105700000Y-105000000D03*
X105200000Y-105000000D03*
D15*
X104500000Y-104300000D03*
X104500000Y-103800000D03*
X104500000Y-103300000D03*
X104500000Y-102800000D03*
X104500000Y-102300000D03*
X104500000Y-101800000D03*
X104500000Y-101300000D03*
X104500000Y-100800000D03*
D14*
X105200000Y-100100000D03*
X105700000Y-100100000D03*
X106200000Y-100100000D03*
X106700000Y-100100000D03*
X107200000Y-100100000D03*
X107700000Y-100100000D03*
X108200000Y-100100000D03*
X108700000Y-100100000D03*
D15*
X109400000Y-100800000D03*
X109400000Y-101300000D03*
X109400000Y-101800000D03*
X109400000Y-102300000D03*
X109400000Y-102800000D03*
X109400000Y-103300000D03*
X109400000Y-103800000D03*
X109400000Y-104300000D03*
D16*
X106950000Y-102550000D03*
%TD*%
D17*
%TO.C,C22*%
X108680000Y-106000000D03*
X109320000Y-106000000D03*
%TD*%
D18*
%TO.C,C13*%
X102420000Y-105750000D03*
X101780000Y-105750000D03*
%TD*%
D19*
%TO.C,U2*%
X101380000Y-100630000D03*
D20*
X101380000Y-101270000D03*
D21*
X100520000Y-101270000D03*
D22*
X100520000Y-100630000D03*
D23*
X100950000Y-100950000D03*
%TD*%
D24*
%TO.C,C28*%
X103300000Y-103020000D03*
X103300000Y-102380000D03*
%TD*%
D17*
%TO.C,L2*%
X107280000Y-106000000D03*
X107920000Y-106000000D03*
%TD*%
D25*
%TO.C,L4*%
X104600000Y-108062500D03*
X104600000Y-106137500D03*
%TD*%
D13*
%TO.C,R5*%
X103300000Y-103780000D03*
X103300000Y-104420000D03*
%TD*%
D26*
%TO.C,AE1*%
X106120000Y-107350000D03*
X109280000Y-107350000D03*
%TD*%
D24*
%TO.C,C14*%
X103200000Y-106670000D03*
X103200000Y-106030000D03*
%TD*%
D17*
%TO.C,C27*%
X100630000Y-103450000D03*
X101270000Y-103450000D03*
%TD*%
%TO.C,R3*%
X102830000Y-101450000D03*
X103470000Y-101450000D03*
%TD*%
D13*
%TO.C,R4*%
X102800000Y-100080000D03*
X102800000Y-100720000D03*
%TD*%
D17*
%TO.C,C10*%
X100530000Y-99950000D03*
X101170000Y-99950000D03*
%TD*%
D18*
%TO.C,C26*%
X101270000Y-104150000D03*
X100630000Y-104150000D03*
%TD*%
D27*
%TO.C,OSC1*%
X102350000Y-108000000D03*
X100550000Y-108000000D03*
X100550000Y-106800000D03*
X102350000Y-106800000D03*
%TD*%
D18*
%TO.C,C21*%
X106520000Y-106000000D03*
X105880000Y-106000000D03*
%TD*%
%TO.C,C17*%
X103820000Y-105300000D03*
X103180000Y-105300000D03*
%TD*%
D13*
%TO.C,C12*%
X103500000Y-100080000D03*
X103500000Y-100720000D03*
%TD*%
D24*
%TO.C,C19*%
X100450000Y-105820000D03*
X100450000Y-105180000D03*
%TD*%
D13*
%TO.C,C20*%
X103200000Y-107430000D03*
X103200000Y-108070000D03*
%TD*%
M02*
