%TF.GenerationSoftware,KiCad,Pcbnew,10.0.3*%
%TF.CreationDate,2026-06-11T15:00:28-06:00*%
%TF.ProjectId,OpenRX-Lite-UFL,4f70656e-5258-42d4-9c69-74652d55464c,rev?*%
%TF.SameCoordinates,Original*%
%TF.FileFunction,Legend,Top*%
%TF.FilePolarity,Positive*%
%FSLAX46Y46*%
G04 Gerber Fmt 4.6, Leading zero omitted, Abs format (unit mm)*
G04 Created by KiCad (PCBNEW 10.0.3) date 2026-06-11 15:00:28*
%MOMM*%
%LPD*%
G01*
G04 APERTURE LIST*
%ADD10C,0.150000*%
%ADD11C,0.200000*%
%ADD12C,0.250000*%
%ADD13C,0.100000*%
%ADD14C,0.060000*%
%ADD15C,0.120000*%
G04 APERTURE END LIST*
D10*
X107200000Y-107150000D02*
X109000000Y-107150000D01*
X109000000Y-107150000D02*
X109000000Y-107400000D01*
D11*
G36*
X101214334Y-108483267D02*
G01*
X101005384Y-108564539D01*
X100905550Y-108432526D01*
X100679198Y-108137663D01*
X100682251Y-108123925D01*
X100706219Y-108116598D01*
X100741846Y-108100722D01*
X100776484Y-108080350D01*
X100803518Y-108058224D01*
X100826173Y-108031765D01*
X100841925Y-108004918D01*
X100851378Y-107974527D01*
X100854931Y-107933049D01*
X100849462Y-107893282D01*
X100833376Y-107858494D01*
X100808001Y-107830042D01*
X100774331Y-107809951D01*
X100743049Y-107799421D01*
X100710827Y-107793892D01*
X100647263Y-107790778D01*
X100619236Y-107790961D01*
X100606291Y-107790778D01*
X100604948Y-107957290D01*
X100604521Y-108110125D01*
X100605192Y-108353879D01*
X100606658Y-108545000D01*
X100380672Y-108545000D01*
X100382199Y-108386242D01*
X100383176Y-108076481D01*
X100382870Y-107920165D01*
X100380672Y-107630554D01*
X100462982Y-107628600D01*
X100579486Y-107626646D01*
X100756073Y-107632814D01*
X100829389Y-107643196D01*
X100897185Y-107661512D01*
X100957616Y-107687183D01*
X101003812Y-107718182D01*
X101038235Y-107754263D01*
X101063962Y-107796937D01*
X101079230Y-107842505D01*
X101084397Y-107892016D01*
X101078769Y-107948711D01*
X101062533Y-107998158D01*
X101035854Y-108041859D01*
X100984982Y-108098085D01*
X100936691Y-108135526D01*
X100936691Y-108139617D01*
X101088488Y-108322067D01*
X101163526Y-108412875D01*
X101214334Y-108483267D01*
G37*
G36*
X102112110Y-108479848D02*
G01*
X101898397Y-108564539D01*
X101871791Y-108518596D01*
X101819446Y-108438998D01*
X101657085Y-108201960D01*
X101654276Y-108201960D01*
X101500587Y-108428862D01*
X101438987Y-108525276D01*
X101417117Y-108564539D01*
X101209388Y-108485282D01*
X101296400Y-108358276D01*
X101491305Y-108083991D01*
X101491305Y-108081243D01*
X101331998Y-107847442D01*
X101225386Y-107690943D01*
X101439037Y-107611015D01*
X101463115Y-107653311D01*
X101517989Y-107736861D01*
X101663924Y-107947520D01*
X101667649Y-107947520D01*
X101809432Y-107735518D01*
X101888994Y-107611015D01*
X102095379Y-107686181D01*
X101992125Y-107833398D01*
X101827322Y-108069642D01*
X101827322Y-108072390D01*
X101999758Y-108313702D01*
X102069470Y-108412970D01*
X102112110Y-108479848D01*
G37*
G36*
X103680207Y-107818133D02*
G01*
X103570725Y-107818133D01*
X103375758Y-107818133D01*
X103374171Y-107989958D01*
X103373621Y-108157691D01*
X103374415Y-108383066D01*
X103375758Y-108545000D01*
X103149772Y-108545000D01*
X103151482Y-108389173D01*
X103152337Y-108157020D01*
X103152337Y-107996796D01*
X103150566Y-107818133D01*
X102950531Y-107817950D01*
X102846118Y-107818133D01*
X102846118Y-107630554D01*
X103020324Y-107630554D01*
X103261453Y-107630554D01*
X103526822Y-107630554D01*
X103680207Y-107630554D01*
X103680207Y-107818133D01*
G37*
G36*
X104587630Y-108479848D02*
G01*
X104373918Y-108564539D01*
X104347312Y-108518596D01*
X104294966Y-108438998D01*
X104132606Y-108201960D01*
X104129797Y-108201960D01*
X103976107Y-108428862D01*
X103914507Y-108525276D01*
X103892637Y-108564539D01*
X103684909Y-108485282D01*
X103771920Y-108358276D01*
X103966826Y-108083991D01*
X103966826Y-108081243D01*
X103807518Y-107847442D01*
X103700906Y-107690943D01*
X103914558Y-107611015D01*
X103938636Y-107653311D01*
X103993509Y-107736861D01*
X104139444Y-107947520D01*
X104143169Y-107947520D01*
X104284952Y-107735518D01*
X104364514Y-107611015D01*
X104570899Y-107686181D01*
X104467646Y-107833398D01*
X104302843Y-108069642D01*
X104302843Y-108072390D01*
X104475278Y-108313702D01*
X104544990Y-108412970D01*
X104587630Y-108479848D01*
G37*
G36*
X105777094Y-108009619D02*
G01*
X105644836Y-108007665D01*
X105397907Y-108005711D01*
X105397907Y-108185474D01*
X105508549Y-108202266D01*
X105560694Y-108216387D01*
X105604841Y-108233407D01*
X105656760Y-108260862D01*
X105696017Y-108291677D01*
X105724704Y-108325792D01*
X105745602Y-108365136D01*
X105758271Y-108408367D01*
X105762622Y-108456461D01*
X105757618Y-108503406D01*
X105742513Y-108548844D01*
X105716521Y-108593665D01*
X105682429Y-108632989D01*
X105639487Y-108667070D01*
X105586401Y-108696003D01*
X105523384Y-108719608D01*
X105448037Y-108737707D01*
X105368304Y-108748405D01*
X105280365Y-108752117D01*
X105230844Y-108752117D01*
X105190239Y-108752117D01*
X105165632Y-108587986D01*
X105185415Y-108588108D01*
X105210023Y-108587986D01*
X105346005Y-108582185D01*
X105411700Y-108573241D01*
X105459395Y-108560143D01*
X105500927Y-108540090D01*
X105527050Y-108518316D01*
X105543168Y-108490502D01*
X105548910Y-108453408D01*
X105542288Y-108420427D01*
X105521860Y-108390882D01*
X105490359Y-108367327D01*
X105442237Y-108346735D01*
X105362919Y-108331775D01*
X105257650Y-108323593D01*
X105228219Y-108322616D01*
X105207031Y-108322250D01*
X105207336Y-108229621D01*
X105207702Y-108091196D01*
X105207336Y-107954481D01*
X105207031Y-107853304D01*
X105311628Y-107853304D01*
X105489314Y-107853304D01*
X105662605Y-107853304D01*
X105777094Y-107853304D01*
X105777094Y-108009619D01*
G37*
G36*
X106587247Y-107890429D02*
G01*
X106409499Y-108301673D01*
X106306856Y-108545000D01*
X106109813Y-108545000D01*
X106008147Y-108305336D01*
X105828751Y-107894337D01*
X106037334Y-107833764D01*
X106212945Y-108294712D01*
X106216670Y-108294712D01*
X106387151Y-107833764D01*
X106587247Y-107890429D01*
G37*
G36*
X106811785Y-108072145D02*
G01*
X106810136Y-108187306D01*
X106809159Y-108297704D01*
X106810075Y-108426481D01*
X106810991Y-108545000D01*
X106748160Y-108552327D01*
X106656630Y-108556723D01*
X106553944Y-108552946D01*
X106461744Y-108542122D01*
X106378986Y-108524911D01*
X106299346Y-108498230D01*
X106223613Y-108460231D01*
X106151169Y-108410300D01*
X106108449Y-108371459D01*
X106071650Y-108326508D01*
X106040527Y-108274867D01*
X106017769Y-108219184D01*
X106003739Y-108157497D01*
X105998884Y-108088693D01*
X106005452Y-108013271D01*
X106024626Y-107944857D01*
X106056281Y-107882063D01*
X106099058Y-107825765D01*
X106153269Y-107774976D01*
X106220351Y-107729473D01*
X106279326Y-107698389D01*
X106346764Y-107671815D01*
X106423683Y-107650094D01*
X106502282Y-107635227D01*
X106588282Y-107625951D01*
X106682397Y-107622739D01*
X106714149Y-107622739D01*
X106741199Y-107622739D01*
X106765806Y-107814225D01*
X106741199Y-107814225D01*
X106707737Y-107814225D01*
X106636442Y-107817035D01*
X106558688Y-107825826D01*
X106482549Y-107841363D01*
X106416539Y-107863379D01*
X106361963Y-107890629D01*
X106317153Y-107923618D01*
X106280862Y-107962419D01*
X106253084Y-108007204D01*
X106236797Y-108053973D01*
X106231342Y-108103775D01*
X106236028Y-108159466D01*
X106249316Y-108206739D01*
X106270604Y-108247145D01*
X106299352Y-108283190D01*
X106332624Y-108313316D01*
X106370804Y-108337943D01*
X106420510Y-108360012D01*
X106476378Y-108376533D01*
X106534811Y-108387166D01*
X106595691Y-108392592D01*
X106595263Y-108300146D01*
X106593126Y-108072145D01*
X106811785Y-108072145D01*
G37*
G36*
X107893353Y-107630554D02*
G01*
X107891460Y-107869118D01*
X107890850Y-108057124D01*
X107891888Y-108334890D01*
X107892987Y-108490472D01*
X107729588Y-108556723D01*
X107559034Y-108336275D01*
X107409691Y-108151402D01*
X107230417Y-107936102D01*
X107226998Y-107937690D01*
X107228829Y-108290498D01*
X107230661Y-108545000D01*
X107020002Y-108545000D01*
X107021528Y-108395034D01*
X107022505Y-108106523D01*
X107021773Y-107926210D01*
X107019697Y-107689905D01*
X107196712Y-107618831D01*
X107374948Y-107838161D01*
X107683610Y-108209593D01*
X107686357Y-108208372D01*
X107684526Y-107928408D01*
X107682694Y-107630554D01*
X107893353Y-107630554D01*
G37*
G36*
X108441282Y-107633623D02*
G01*
X108528109Y-107642278D01*
X108603367Y-107655772D01*
X108676813Y-107676337D01*
X108742699Y-107702990D01*
X108801814Y-107735518D01*
X108864105Y-107782011D01*
X108912984Y-107832836D01*
X108950009Y-107888292D01*
X108976520Y-107949487D01*
X108992841Y-108017434D01*
X108998491Y-108093456D01*
X108991655Y-108171711D01*
X108971848Y-108241410D01*
X108939384Y-108304176D01*
X108896088Y-108360704D01*
X108845190Y-108409153D01*
X108786061Y-108450050D01*
X108700155Y-108492203D01*
X108601657Y-108523689D01*
X108532981Y-108537202D01*
X108453968Y-108545847D01*
X108363337Y-108548907D01*
X108223631Y-108546953D01*
X108138634Y-108545000D01*
X108139855Y-108400347D01*
X108141138Y-108078251D01*
X108140688Y-107937629D01*
X108361689Y-107937629D01*
X108361689Y-108039783D01*
X108361689Y-108154089D01*
X108362483Y-108369145D01*
X108373412Y-108369145D01*
X108385075Y-108369145D01*
X108447310Y-108365471D01*
X108515318Y-108353941D01*
X108580339Y-108335256D01*
X108628524Y-108313030D01*
X108672030Y-108283531D01*
X108706058Y-108251429D01*
X108731839Y-108216615D01*
X108750576Y-108177681D01*
X108762061Y-108134379D01*
X108766033Y-108085762D01*
X108762607Y-108041426D01*
X108752550Y-108000375D01*
X108735930Y-107961992D01*
X108712773Y-107927319D01*
X108681722Y-107895816D01*
X108641652Y-107867287D01*
X108581857Y-107838213D01*
X108516233Y-107819598D01*
X108448999Y-107809599D01*
X108387456Y-107806409D01*
X108372741Y-107806409D01*
X108362849Y-107806409D01*
X108361689Y-107937629D01*
X108140688Y-107937629D01*
X108140527Y-107887192D01*
X108138634Y-107630554D01*
X108229431Y-107630554D01*
X108341478Y-107630554D01*
X108441282Y-107633623D01*
G37*
D12*
G36*
X104669836Y-106417814D02*
G01*
X104741645Y-106427309D01*
X104803803Y-106442421D01*
X104852319Y-106461491D01*
X104891965Y-106485594D01*
X104924032Y-106514595D01*
X104948577Y-106549353D01*
X104963368Y-106588881D01*
X104968484Y-106634579D01*
X104964246Y-106676689D01*
X104951686Y-106715863D01*
X104930504Y-106752915D01*
X104902503Y-106785256D01*
X104869089Y-106811354D01*
X104829571Y-106831561D01*
X104829571Y-106836324D01*
X104868238Y-106843995D01*
X104903698Y-106855802D01*
X104936556Y-106872318D01*
X104965614Y-106893660D01*
X105001058Y-106927509D01*
X105025087Y-106965711D01*
X105039246Y-107009225D01*
X105044260Y-107061577D01*
X105038965Y-107110907D01*
X105023368Y-107155815D01*
X104997121Y-107197437D01*
X104962498Y-107232897D01*
X104918184Y-107263403D01*
X104862482Y-107288845D01*
X104788194Y-107310203D01*
X104698168Y-107324382D01*
X104602723Y-107331416D01*
X104493554Y-107333907D01*
X104367830Y-107332503D01*
X104270804Y-107330000D01*
X104272697Y-107100900D01*
X104273279Y-106861786D01*
X104485799Y-106861786D01*
X104486532Y-107046434D01*
X104487264Y-107173684D01*
X104516268Y-107175638D01*
X104560354Y-107177592D01*
X104663180Y-107171791D01*
X104710007Y-107162323D01*
X104745490Y-107147428D01*
X104773615Y-107127740D01*
X104794644Y-107102182D01*
X104807872Y-107071679D01*
X104812413Y-107036359D01*
X104809190Y-107006288D01*
X104800078Y-106981526D01*
X104785741Y-106959448D01*
X104766617Y-106939028D01*
X104746011Y-106925093D01*
X104717402Y-106912955D01*
X104685864Y-106905273D01*
X104651212Y-106902636D01*
X104606088Y-106903368D01*
X104584229Y-106904040D01*
X104565117Y-106818066D01*
X104600546Y-106814687D01*
X104632711Y-106807503D01*
X104662324Y-106796472D01*
X104685284Y-106783262D01*
X104705795Y-106764315D01*
X104722470Y-106741313D01*
X104733296Y-106714452D01*
X104737186Y-106680252D01*
X104733163Y-106650717D01*
X104721127Y-106623649D01*
X104702198Y-106600530D01*
X104677102Y-106582677D01*
X104651811Y-106572851D01*
X104620743Y-106565642D01*
X104552111Y-106560146D01*
X104514192Y-106560146D01*
X104487936Y-106560146D01*
X104486165Y-106713042D01*
X104485799Y-106861786D01*
X104273279Y-106861786D01*
X104273308Y-106849818D01*
X104272025Y-106563199D01*
X104270804Y-106415554D01*
X104346642Y-106413600D01*
X104484700Y-106411646D01*
X104669836Y-106417814D01*
G37*
G36*
X105705488Y-106391858D02*
G01*
X105767352Y-106402566D01*
X105825288Y-106420073D01*
X105880383Y-106444734D01*
X105930432Y-106475827D01*
X105975924Y-106513557D01*
X106020794Y-106562447D01*
X106057204Y-106616051D01*
X106085590Y-106674879D01*
X106105766Y-106737184D01*
X106118008Y-106802829D01*
X106122165Y-106872411D01*
X106117658Y-106944659D01*
X106104466Y-107011778D01*
X106082842Y-107074521D01*
X106052859Y-107133593D01*
X106015943Y-107186360D01*
X105971833Y-107233401D01*
X105924574Y-107272036D01*
X105874142Y-107303068D01*
X105820159Y-107326885D01*
X105763433Y-107343678D01*
X105703692Y-107353887D01*
X105640457Y-107357355D01*
X105548202Y-107349972D01*
X105462831Y-107328290D01*
X105409139Y-107305551D01*
X105359845Y-107276494D01*
X105314515Y-107240912D01*
X105269545Y-107194198D01*
X105231347Y-107140993D01*
X105199721Y-107080628D01*
X105176866Y-107016426D01*
X105162875Y-106947089D01*
X105158143Y-106872777D01*
X105390535Y-106872777D01*
X105396594Y-106945329D01*
X105414105Y-107009797D01*
X105443353Y-107067598D01*
X105482737Y-107114577D01*
X105515113Y-107140296D01*
X105553018Y-107160495D01*
X105594633Y-107173240D01*
X105640457Y-107177592D01*
X105685041Y-107173428D01*
X105726125Y-107161167D01*
X105764012Y-107141220D01*
X105798177Y-107113906D01*
X105835048Y-107069477D01*
X105864794Y-107011812D01*
X105883419Y-106947909D01*
X105889707Y-106879616D01*
X105883961Y-106811023D01*
X105866504Y-106742290D01*
X105847919Y-106698757D01*
X105824266Y-106661454D01*
X105795490Y-106629633D01*
X105763284Y-106603953D01*
X105726491Y-106584387D01*
X105686032Y-106572195D01*
X105639785Y-106567962D01*
X105594041Y-106572254D01*
X105553018Y-106584754D01*
X105515366Y-106605296D01*
X105479989Y-106634396D01*
X105442889Y-106681432D01*
X105414105Y-106740947D01*
X105396420Y-106805942D01*
X105390535Y-106872777D01*
X105158143Y-106872777D01*
X105158077Y-106871739D01*
X105162077Y-106801652D01*
X105173700Y-106737425D01*
X105192577Y-106678299D01*
X105219341Y-106622389D01*
X105254131Y-106570105D01*
X105297479Y-106521067D01*
X105342704Y-106481640D01*
X105393081Y-106448835D01*
X105449154Y-106422454D01*
X105508320Y-106403622D01*
X105571431Y-106392125D01*
X105639114Y-106388199D01*
X105705488Y-106391858D01*
G37*
G36*
X106788949Y-106391858D02*
G01*
X106850813Y-106402566D01*
X106908749Y-106420073D01*
X106963844Y-106444734D01*
X107013894Y-106475827D01*
X107059386Y-106513557D01*
X107104255Y-106562447D01*
X107140665Y-106616051D01*
X107169051Y-106674879D01*
X107189227Y-106737184D01*
X107201469Y-106802829D01*
X107205626Y-106872411D01*
X107201120Y-106944659D01*
X107187928Y-107011778D01*
X107166303Y-107074521D01*
X107136321Y-107133593D01*
X107099405Y-107186360D01*
X107055295Y-107233401D01*
X107008035Y-107272036D01*
X106957603Y-107303068D01*
X106903620Y-107326885D01*
X106846894Y-107343678D01*
X106787153Y-107353887D01*
X106723918Y-107357355D01*
X106631663Y-107349972D01*
X106546293Y-107328290D01*
X106492600Y-107305551D01*
X106443307Y-107276494D01*
X106397976Y-107240912D01*
X106353006Y-107194198D01*
X106314808Y-107140993D01*
X106283182Y-107080628D01*
X106260327Y-107016426D01*
X106246336Y-106947089D01*
X106241605Y-106872777D01*
X106473997Y-106872777D01*
X106480055Y-106945329D01*
X106497566Y-107009797D01*
X106526814Y-107067598D01*
X106566198Y-107114577D01*
X106598574Y-107140296D01*
X106636479Y-107160495D01*
X106678094Y-107173240D01*
X106723918Y-107177592D01*
X106768502Y-107173428D01*
X106809586Y-107161167D01*
X106847473Y-107141220D01*
X106881638Y-107113906D01*
X106918509Y-107069477D01*
X106948255Y-107011812D01*
X106966880Y-106947909D01*
X106973168Y-106879616D01*
X106967423Y-106811023D01*
X106949965Y-106742290D01*
X106931380Y-106698757D01*
X106907727Y-106661454D01*
X106878951Y-106629633D01*
X106846745Y-106603953D01*
X106809953Y-106584387D01*
X106769493Y-106572195D01*
X106723247Y-106567962D01*
X106677502Y-106572254D01*
X106636479Y-106584754D01*
X106598827Y-106605296D01*
X106563451Y-106634396D01*
X106526350Y-106681432D01*
X106497566Y-106740947D01*
X106479882Y-106805942D01*
X106473997Y-106872777D01*
X106241605Y-106872777D01*
X106241539Y-106871739D01*
X106245538Y-106801652D01*
X106257162Y-106737425D01*
X106276038Y-106678299D01*
X106302802Y-106622389D01*
X106337592Y-106570105D01*
X106380940Y-106521067D01*
X106426165Y-106481640D01*
X106476542Y-106448835D01*
X106532615Y-106422454D01*
X106591781Y-106403622D01*
X106654893Y-106392125D01*
X106722575Y-106388199D01*
X106788949Y-106391858D01*
G37*
G36*
X108078489Y-106603133D02*
G01*
X107969007Y-106603133D01*
X107774040Y-106603133D01*
X107772453Y-106774958D01*
X107771903Y-106942691D01*
X107772697Y-107168066D01*
X107774040Y-107330000D01*
X107548055Y-107330000D01*
X107549764Y-107174173D01*
X107550619Y-106942020D01*
X107550619Y-106781796D01*
X107548848Y-106603133D01*
X107348814Y-106602950D01*
X107244400Y-106603133D01*
X107244400Y-106415554D01*
X107418606Y-106415554D01*
X107659735Y-106415554D01*
X107925105Y-106415554D01*
X108078489Y-106415554D01*
X108078489Y-106603133D01*
G37*
%TO.C,FL1*%
D13*
X102640000Y-101520000D02*
X103020000Y-101520000D01*
X102640000Y-102280000D02*
X103020000Y-102280000D01*
X103780000Y-101520000D02*
X104160000Y-101520000D01*
X103780000Y-102280000D02*
X104160000Y-102280000D01*
D12*
X102320000Y-101900000D02*
G75*
G02*
X102200000Y-101900000I-60000J0D01*
G01*
X102200000Y-101900000D02*
G75*
G02*
X102320000Y-101900000I60000J0D01*
G01*
D14*
X102930000Y-101650000D02*
G75*
G02*
X102870000Y-101650000I-30000J0D01*
G01*
X102870000Y-101650000D02*
G75*
G02*
X102930000Y-101650000I30000J0D01*
G01*
%TO.C,D1*%
D13*
X102300000Y-99650000D02*
G75*
G02*
X102200000Y-99650000I-50000J0D01*
G01*
X102200000Y-99650000D02*
G75*
G02*
X102300000Y-99650000I50000J0D01*
G01*
%TO.C,C16*%
D15*
X101240000Y-100442164D02*
X101240000Y-100657836D01*
X101960000Y-100442164D02*
X101960000Y-100657836D01*
%TO.C,U3*%
D11*
X100450000Y-102910000D02*
X100850000Y-102910000D01*
X100450000Y-103310000D02*
X100450000Y-102910000D01*
X100450000Y-107210000D02*
X100450000Y-106810000D01*
X100850000Y-107210000D02*
X100450000Y-107210000D01*
X104350000Y-102910000D02*
X104750000Y-102910000D01*
X104350000Y-107210000D02*
X104750000Y-107210000D01*
X104750000Y-102910000D02*
X104750000Y-103310000D01*
X104750000Y-107210000D02*
X104750000Y-106810000D01*
%TO.C,C11*%
D15*
X105832164Y-103430000D02*
X106047836Y-103430000D01*
X105832164Y-104150000D02*
X106047836Y-104150000D01*
%TO.C,X1*%
D10*
X109300000Y-105350000D02*
X108600000Y-105350000D01*
X109300000Y-106000000D02*
X109300000Y-105350000D01*
%TO.C,J1*%
D15*
X106740000Y-100300000D02*
X106740000Y-100940000D01*
X106740000Y-100940000D02*
X106110000Y-100940000D01*
X106740000Y-103100000D02*
X106740000Y-102460000D01*
X109460000Y-100350000D02*
X109460000Y-103050000D01*
%TO.C,C8*%
X100290000Y-100442164D02*
X100290000Y-100657836D01*
X101010000Y-100442164D02*
X101010000Y-100657836D01*
%TD*%
M02*
