%TF.GenerationSoftware,KiCad,Pcbnew,10.0.3*%
%TF.CreationDate,2026-06-11T15:00:28-06:00*%
%TF.ProjectId,OpenRX-Lite-UFL,4f70656e-5258-42d4-9c69-74652d55464c,rev?*%
%TF.SameCoordinates,Original*%
%TF.FileFunction,Legend,Bot*%
%TF.FilePolarity,Positive*%
%FSLAX46Y46*%
G04 Gerber Fmt 4.6, Leading zero omitted, Abs format (unit mm)*
G04 Created by KiCad (PCBNEW 10.0.3) date 2026-06-11 15:00:28*
%MOMM*%
%LPD*%
G01*
G04 APERTURE LIST*
%ADD10C,0.250000*%
%ADD11C,0.120000*%
%ADD12C,0.100000*%
G04 APERTURE END LIST*
D10*
G36*
X102247575Y-104267392D02*
G01*
X102318133Y-104288206D01*
X102361557Y-104309830D01*
X102402126Y-104337906D01*
X102440132Y-104372897D01*
X102482473Y-104428267D01*
X102511878Y-104489706D01*
X102529150Y-104556789D01*
X102535143Y-104632527D01*
X102528713Y-104707860D01*
X102509863Y-104776997D01*
X102478516Y-104840236D01*
X102435369Y-104894844D01*
X102377744Y-104943961D01*
X102315446Y-104977520D01*
X102246961Y-104997279D01*
X102168839Y-105004143D01*
X102114811Y-105000645D01*
X102063252Y-104990280D01*
X102013684Y-104973063D01*
X101967044Y-104949232D01*
X101925754Y-104919812D01*
X101889303Y-104884586D01*
X101850559Y-104831142D01*
X101822686Y-104769853D01*
X101806103Y-104703421D01*
X101800460Y-104631795D01*
X101956775Y-104631795D01*
X101959089Y-104659945D01*
X101965935Y-104686444D01*
X101977632Y-104710756D01*
X101994145Y-104731568D01*
X102029809Y-104761402D01*
X102071264Y-104781088D01*
X102117211Y-104791968D01*
X102168839Y-104795743D01*
X102214067Y-104792124D01*
X102259881Y-104781088D01*
X102301953Y-104762682D01*
X102333276Y-104739078D01*
X102354757Y-104714721D01*
X102368264Y-104690901D01*
X102376026Y-104664548D01*
X102378827Y-104631795D01*
X102376349Y-104603633D01*
X102368935Y-104576535D01*
X102356720Y-104551593D01*
X102340115Y-104530739D01*
X102304633Y-104502726D01*
X102260553Y-104483295D01*
X102212636Y-104472230D01*
X102164748Y-104468579D01*
X102117919Y-104472351D01*
X102072974Y-104483600D01*
X102031795Y-104502217D01*
X101998907Y-104526648D01*
X101980980Y-104548271D01*
X101967644Y-104574092D01*
X101959500Y-104602311D01*
X101956775Y-104631795D01*
X101800460Y-104631795D01*
X101806168Y-104558654D01*
X101822686Y-104493187D01*
X101850628Y-104433031D01*
X101889975Y-104379736D01*
X101928221Y-104343189D01*
X101970124Y-104313502D01*
X102016065Y-104290282D01*
X102089834Y-104267731D01*
X102167435Y-104260179D01*
X102247575Y-104267392D01*
G37*
G36*
X102239578Y-103437436D02*
G01*
X102293130Y-103453363D01*
X102342862Y-103479884D01*
X102386634Y-103515586D01*
X102424156Y-103560675D01*
X102455642Y-103616477D01*
X102486793Y-103699255D01*
X102504856Y-103783539D01*
X102513316Y-103875295D01*
X102516580Y-104003236D01*
X102516275Y-104055870D01*
X102515603Y-104115954D01*
X102264216Y-104114549D01*
X102048977Y-104113817D01*
X101698489Y-104114916D01*
X101507369Y-104115954D01*
X101507369Y-103916224D01*
X101956775Y-103916224D01*
X102036093Y-103916468D01*
X102127745Y-103916652D01*
X102291510Y-103916102D01*
X102359288Y-103915491D01*
X102359288Y-103904867D01*
X102359288Y-103894975D01*
X102357084Y-103847347D01*
X102350739Y-103804361D01*
X102339196Y-103763697D01*
X102321857Y-103726692D01*
X102294541Y-103691803D01*
X102258782Y-103664837D01*
X102216842Y-103647749D01*
X102168595Y-103641878D01*
X102124773Y-103645171D01*
X102089069Y-103654309D01*
X102059968Y-103668562D01*
X102022422Y-103700637D01*
X101990847Y-103746536D01*
X101977393Y-103778608D01*
X101965935Y-103823534D01*
X101959026Y-103870892D01*
X101956775Y-103916224D01*
X101507369Y-103916224D01*
X101507369Y-103905844D01*
X101820000Y-103907981D01*
X101823867Y-103834761D01*
X101835997Y-103754719D01*
X101857069Y-103676846D01*
X101886739Y-103609577D01*
X101919843Y-103558483D01*
X101958579Y-103515614D01*
X102003243Y-103480190D01*
X102053456Y-103454068D01*
X102112116Y-103437762D01*
X102181113Y-103432013D01*
X102239578Y-103437436D01*
G37*
G36*
X102262409Y-102669117D02*
G01*
X102334802Y-102685668D01*
X102378834Y-102703846D01*
X102417845Y-102727707D01*
X102452405Y-102757414D01*
X102488430Y-102802929D01*
X102514443Y-102857248D01*
X102529730Y-102917760D01*
X102535143Y-102989139D01*
X102528863Y-103058066D01*
X102509802Y-103126587D01*
X102478578Y-103189432D01*
X102437262Y-103240038D01*
X102377780Y-103288568D01*
X102318072Y-103320027D01*
X102253022Y-103338218D01*
X102176411Y-103344635D01*
X102123813Y-103340811D01*
X102075194Y-103329612D01*
X102029865Y-103311174D01*
X101968467Y-103272115D01*
X101918307Y-103223002D01*
X101886310Y-103177682D01*
X101870788Y-103147287D01*
X102261591Y-103147287D01*
X102304548Y-103135967D01*
X102339308Y-103119020D01*
X102367287Y-103096728D01*
X102388734Y-103068655D01*
X102401679Y-103036050D01*
X102406182Y-102997566D01*
X102401528Y-102958318D01*
X102388404Y-102926684D01*
X102366981Y-102900907D01*
X102338992Y-102881260D01*
X102304370Y-102867314D01*
X102261591Y-102859508D01*
X102261591Y-103147287D01*
X101870788Y-103147287D01*
X101859658Y-103125491D01*
X101838501Y-103065526D01*
X101824299Y-103003247D01*
X101815329Y-102933043D01*
X101812184Y-102853951D01*
X101813588Y-102776404D01*
X101816092Y-102728227D01*
X101972407Y-102707344D01*
X101970026Y-102754422D01*
X101968499Y-102830137D01*
X101970541Y-102884261D01*
X101976315Y-102931498D01*
X101986812Y-102976573D01*
X102002510Y-103019181D01*
X102023782Y-103056632D01*
X102047891Y-103085674D01*
X102074867Y-103107536D01*
X102121425Y-103129485D01*
X102171709Y-103137212D01*
X102171709Y-102663075D01*
X102262409Y-102669117D01*
G37*
G36*
X101820000Y-101848403D02*
G01*
X101820000Y-102058086D01*
X101924291Y-102057048D01*
X102055938Y-102055949D01*
X102152719Y-102056315D01*
X102247424Y-102057353D01*
X102305250Y-102064278D01*
X102338710Y-102078846D01*
X102353702Y-102094465D01*
X102363431Y-102117317D01*
X102367103Y-102150104D01*
X102362912Y-102185188D01*
X102348541Y-102230216D01*
X102328222Y-102275126D01*
X102304577Y-102317166D01*
X102228557Y-102317716D01*
X102107779Y-102318265D01*
X101931985Y-102316983D01*
X101820000Y-102315701D01*
X101820000Y-102525444D01*
X101915376Y-102524406D01*
X102147712Y-102523307D01*
X102326498Y-102524040D01*
X102515603Y-102525444D01*
X102515603Y-102319731D01*
X102449169Y-102320403D01*
X102447765Y-102319731D01*
X102482112Y-102253113D01*
X102510230Y-102182405D01*
X102529437Y-102111485D01*
X102535143Y-102054605D01*
X102528215Y-101994333D01*
X102508634Y-101945251D01*
X102476707Y-101904823D01*
X102434708Y-101874667D01*
X102383130Y-101855895D01*
X102319293Y-101849197D01*
X102181662Y-101850052D01*
X102089094Y-101850907D01*
X101933023Y-101849685D01*
X101820000Y-101848403D01*
G37*
%TO.C,U1*%
D11*
X104340000Y-99940000D02*
X104340000Y-100415000D01*
X104340000Y-104685000D02*
X104340000Y-105160000D01*
X104340000Y-105160000D02*
X104815000Y-105160000D01*
X104815000Y-99940000D02*
X104340000Y-99940000D01*
X109085000Y-105160000D02*
X109560000Y-105160000D01*
X109560000Y-99940000D02*
X109085000Y-99940000D01*
X109560000Y-100415000D02*
X109560000Y-99940000D01*
X109560000Y-105160000D02*
X109560000Y-104685000D01*
X108700000Y-105660000D02*
X108460000Y-105990000D01*
X108940000Y-105990000D01*
X108700000Y-105660000D01*
G36*
X108940000Y-105990000D02*
G01*
X108460000Y-105990000D01*
X108700000Y-105660000D01*
X108940000Y-105990000D01*
G37*
%TO.C,U2*%
D12*
X100400000Y-100870000D02*
X100400000Y-101030000D01*
X101320000Y-101500000D02*
X100400000Y-101500000D01*
X101320000Y-101500000D02*
X101490000Y-101500000D01*
X101500000Y-100390000D02*
X100410000Y-100390000D01*
X101500000Y-100930000D02*
X101500000Y-100890000D01*
X101500000Y-100930000D02*
X101500000Y-101020000D01*
X101770000Y-100620000D02*
G75*
G02*
X101670000Y-100620000I-50000J0D01*
G01*
X101670000Y-100620000D02*
G75*
G02*
X101770000Y-100620000I50000J0D01*
G01*
%TO.C,L4*%
D11*
X104040000Y-107499622D02*
X104040000Y-106700378D01*
X105160000Y-107499622D02*
X105160000Y-106700378D01*
%TO.C,AE1*%
D10*
X106940000Y-107100000D02*
X107450000Y-107100000D01*
X106940000Y-107600000D02*
X106940000Y-107100000D01*
X107450000Y-107100000D02*
X107450000Y-107600000D01*
X107450000Y-107600000D02*
X106940000Y-107600000D01*
%TD*%
M02*
